HIERARCHY
ROOT Hips
{
	OFFSET 0.000000 0.000000 0.000000
	CHANNELS 6 Xposition Yposition Zposition Zrotation Yrotation Xrotation 
	JOINT LowerBack
	{
		OFFSET 0.000000 0.000000 0.000000
		CHANNELS 3 Zrotation Yrotation Xrotation
		JOINT Spine
		{
			OFFSET 0.028270 2.035590 -0.193380
			CHANNELS 3 Zrotation Yrotation Xrotation
			JOINT Spine1
			{
				OFFSET 0.056720 2.048850 -0.042750
				CHANNELS 3 Zrotation Yrotation Xrotation
				JOINT Neck
				{
					OFFSET 0.000000 0.000000 0.000000
					CHANNELS 3 Zrotation Yrotation Xrotation
					JOINT Neck1
					{
						OFFSET -0.054170 1.746240 0.172020
						CHANNELS 3 Zrotation Yrotation Xrotation
						JOINT Head
						{
							OFFSET 0.104070 1.761360 -0.123970
							CHANNELS 3 Zrotation Yrotation Xrotation
							End Site
							{
								OFFSET 0.000000 0.000000 0.000000
							}
						}
					}
				}
				JOINT LeftShoulder
				{
					OFFSET 0.000000 0.000000 0.000000
					CHANNELS 3 Zrotation Yrotation Xrotation
					JOINT LeftArm
					{
						OFFSET 3.362410 1.200890 -0.311210
						CHANNELS 3 Zrotation Yrotation Xrotation
						JOINT LeftForeArm
						{
							OFFSET 4.983000 -0.000000 -0.000000
							CHANNELS 3 Zrotation Yrotation Xrotation
							JOINT LeftHand
							{
								OFFSET 3.483560 -0.000000 -0.000000
								CHANNELS 3 Zrotation Yrotation Xrotation
								JOINT LeftFingerBase
								{
									OFFSET 0.000000 0.000000 0.000000
									CHANNELS 3 Zrotation Yrotation Xrotation
									JOINT LeftHandIndex1
									{
										OFFSET 0.715260 -0.000000 -0.000000
										CHANNELS 3 Zrotation Yrotation Xrotation
										End Site
										{
											OFFSET 0.000000 0.000000 0.000000
										}
									}
								}
								JOINT LThumb
								{
									OFFSET 0.000000 0.000000 0.000000
									CHANNELS 3 Zrotation Yrotation Xrotation
									End Site
									{
										OFFSET 0.000000 0.000000 0.000000
									}
								}
							}
						}
					}
				}
				JOINT RightShoulder
				{
					OFFSET 0.000000 0.000000 0.000000
					CHANNELS 3 Zrotation Yrotation Xrotation
					JOINT RightArm
					{
						OFFSET -3.136600 1.374050 -0.404650
						CHANNELS 3 Zrotation Yrotation Xrotation
						JOINT RightForeArm
						{
							OFFSET -5.241900 -0.000000 -0.000000
							CHANNELS 3 Zrotation Yrotation Xrotation
							JOINT RightHand
							{
								OFFSET -3.444170 -0.000000 -0.000000
								CHANNELS 3 Zrotation Yrotation Xrotation
								JOINT RightFingerBase
								{
									OFFSET 0.000000 0.000000 0.000000
									CHANNELS 3 Zrotation Yrotation Xrotation
									JOINT RightHandIndex1
									{
										OFFSET -0.622530 -0.000000 -0.000000
										CHANNELS 3 Zrotation Yrotation Xrotation
										End Site
										{
											OFFSET 0.000000 0.000000 0.000000
										}
									}
								}
								JOINT RThumb
								{
									OFFSET 0.000000 0.000000 0.000000
									CHANNELS 3 Zrotation Yrotation Xrotation
									End Site
									{
										OFFSET 0.000000 0.000000 0.000000
									}
								}
							}
						}
					}
				}
			}
		}
	}
}
}
MOTION
Frames: 7
Frame Time: 0.008333
0.516043 16.386370 -0.475154 -132.030864 79.698301 -105.896346 9.364086 -2.103080 5.486723 0.976523 -2.284519 -1.990715 -7.321336 -2.374577 -0.396912 9.356399 4.235561 4.183987 -4.583805 -0.391292 2.857761 0.000000 0.000000 0.000000 -6.028098 -6.925559 0.074158 -69.770700 -24.012368 20.691166 -0.848115 -75.900970 -0.042767 7.282747 -4.663866 -0.334736 -0.187541 0.493349 -0.000000 0.000000 0.000000 0.000000 0.000000 0.000000 0.000000 18.568155 0.223151 2.356456 44.603966 3.992340 -21.752516 3.528353 2.570269 0.006700 -5.192152 6.356030 -0.300728 0.139319 -0.098601 0.000000 0.000000 0.000000 0.000000 0.000000 0.000000 0.000000 
0.685884 16.372542 -0.513633 -132.724933 79.068577 -106.695501 9.778299 -2.199947 5.788565 1.048813 -2.365207 -1.947943 -7.372933 -2.463701 -0.432215 9.862281 4.536952 4.322655 -4.574847 -0.389963 2.891824 0.000000 0.000000 0.000000 -6.212220 -7.077493 0.080817 -70.022017 -23.413036 19.651025 -0.914831 -74.508146 -0.047097 8.029616 -4.720847 -0.371910 -0.190455 0.480810 -0.000000 0.000000 0.000000 0.000000 0.000000 0.000000 0.000000 19.001092 0.291777 2.298679 44.534320 4.704823 -22.400590 3.468409 2.195028 0.005783 -5.706930 6.416861 -0.332737 0.137192 -0.097936 0.000000 0.000000 0.000000 0.000000 0.000000 0.000000 0.000000 
0.852762 16.367202 -0.550128 -133.870125 78.434234 -107.908986 10.119484 -2.300939 6.066271 1.106094 -2.449265 -1.902868 -7.424775 -2.555731 -0.442560 10.414941 4.801800 4.451251 -4.556210 -0.388153 2.922901 0.000000 0.000000 0.000000 -6.333761 -7.206159 0.085129 -70.331630 -22.871034 18.649554 -0.988155 -72.810578 -0.051528 8.856361 -4.686839 -0.406002 -0.193425 0.464754 -0.000000 0.000000 0.000000 0.000000 0.000000 0.000000 0.000000 19.434588 0.332113 2.226043 44.627892 5.464722 -23.030865 3.400233 1.938869 0.004801 -6.258310 6.476521 -0.367345 0.134558 -0.096844 0.000000 0.000000 0.000000 0.000000 0.000000 0.000000 0.000000 
1.016970 16.370021 -0.584752 -135.387507 77.805066 -109.452518 10.382811 -2.400697 6.310180 1.148190 -2.533097 -1.856404 -7.473013 -2.646777 -0.425282 10.993838 5.017292 4.562111 -4.527134 -0.385845 2.948979 0.000000 0.000000 0.000000 -6.408579 -7.305952 0.089753 -70.679914 -22.401287 17.696363 -1.064594 -70.820692 -0.055787 9.738008 -4.560074 -0.433410 -0.196051 0.445631 -0.000000 0.000000 0.000000 0.000000 0.000000 0.000000 0.000000 19.845267 0.339548 2.139941 44.894116 6.290628 -23.727063 3.323198 1.751253 0.003883 -6.814590 6.589176 -0.406051 0.131329 -0.095757 0.000000 0.000000 0.000000 0.000000 0.000000 0.000000 0.000000 
1.178758 16.380714 -0.617605 -137.193930 77.190496 -111.238734 10.564864 -2.491936 6.514437 1.174382 -2.610847 -1.810039 -7.516769 -2.730819 -0.382005 11.586029 5.183406 4.651726 -4.489035 -0.383154 2.969073 0.000000 0.000000 0.000000 -6.452570 -7.372341 0.100001 -71.045077 -22.018426 16.804063 -1.141722 -68.554987 -0.059587 10.645830 -4.346697 -0.451229 -0.198080 0.424085 0.000000 0.000000 0.000000 0.000000 0.000000 0.000000 0.000000 20.227592 0.323917 2.042459 45.335984 7.141369 -24.378723 3.241744 1.698171 0.003028 -7.362691 6.727438 -0.446954 0.127682 -0.094461 -0.000000 0.000000 0.000000 0.000000 0.000000 0.000000 0.000000 
1.338335 16.398886 -0.649234 -139.198996 76.595407 -113.172508 10.670963 -2.568753 6.673769 1.186184 -2.677896 -1.765308 -7.553453 -2.803176 -0.315072 12.170632 5.300698 4.717931 -4.443015 -0.380159 2.982587 0.000000 0.000000 0.000000 -6.487303 -7.406258 0.119599 -71.403028 -21.724290 15.975674 -1.217054 -66.043414 -0.062687 11.548556 -4.059086 -0.457359 -0.199189 0.400824 0.000000 0.000000 0.000000 0.000000 0.000000 0.000000 0.000000 20.567815 0.291298 1.936049 45.946873 8.018798 -25.007541 3.157385 1.754671 0.002321 -7.869861 6.919648 -0.490456 0.123674 -0.093214 -0.000000 0.000000 0.000000 0.000000 0.000000 0.000000 0.000000 
1.495907 16.424227 -0.680145 -141.322848 76.025187 -115.169293 10.706261 -2.624671 6.785854 1.184291 -2.728505 -1.724334 -7.583417 -2.858208 -0.230602 12.735459 5.377884 4.763034 -4.392009 -0.377053 2.990116 0.000000 0.000000 0.000000 -6.528995 -7.415466 0.152988 -71.731680 -21.513942 15.211601 -1.289259 -63.320834 -0.064901 12.414312 -3.717164 -0.450994 -0.199150 0.376623 0.000000 0.000000 0.000000 0.000000 0.000000 0.000000 0.000000 20.869035 0.255069 1.823474 46.715276 8.878676 -25.456192 3.075663 1.995321 0.001721 -8.326513 7.113581 -0.532654 0.119588 -0.091735 -0.000000 0.000000 0.000000 0.000000 0.000000 0.000000 0.000000 
